PathFileType	4	(X/Y/Z)	Patient4_TMGait_0pt7_02_right_38.trc.trc
DataRate	CameraRate	NumFrames	NumMarkers	Units	OrigDataRate	OrigDataStartFrame	OrigNumFrames
88.050314465409	88.050314465409	4	33	mm	88.050314465409	89	       141
Frame#	Time	Sacral			L.Shoulder			Chest			R.Shoulder			Neck			R.ASIS			L.ASIS			R.Thigh.Superior			R.Thigh.Lateral			R.Thigh.Inferior			R.Patella			L.Thigh.Superior			L.Thigh.Lateral			L.Thigh.Inferior			L.Patella			L.Shank.Superior			L.Shank.Lateral			L.Shank.Inferior			R.Shank.Superior			R.Shank.Lateral			R.Shank.Inferior			R.Heel			R.Midfoot.Superior			R.Midfoot.Lateral			R.Toe			L.Heel			L.Midfoot.Lateral			L.Midfoot.Superior			L.Toe			L.Elbow			L.Wrist			R.Elbow			R.Wrist			
		X1	Y1	Z1	X2	Y2	Z2	X3	Y3	Z3	X4	Y4	Z4	X5	Y5	Z5	X6	Y6	Z6	X7	Y7	Z7	X8	Y8	Z8	X9	Y9	Z9	X10	Y10	Z10	X11	Y11	Z11	X12	Y12	Z12	X13	Y13	Z13	X14	Y14	Z14	X15	Y15	Z15	X16	Y16	Z16	X17	Y17	Z17	X18	Y18	Z18	X19	Y19	Z19	X20	Y20	Z20	X21	Y21	Z21	X22	Y22	Z22	X23	Y23	Z23	X24	Y24	Z24	X25	Y25	Z25	X26	Y26	Z26	X27	Y27	Z27	X28	Y28	Z28	X29	Y29	Z29	X30	Y30	Z30	X31	Y31	Z31	X32	Y32	Z32	X33	Y33	Z33	

89	43.939428571429	778.619038370283	1031.770372954560	444.659438121632	1018.270848883288	1404.621416925427	226.376892413247	1112.388176440043	1335.574833986667	392.972470092606	1049.594183883644	1443.995155756371	556.282026708969	1031.846590187838	1481.423087492182	373.305697965223	988.176562977841	939.295889522594	569.639988998311	986.850141626077	946.611998815653	296.393976550773	1031.043328884060	742.495479440093	550.132937084563	950.329828958069	634.569540548748	615.574549083261	1034.184702573573	574.164142279219	544.085456082271	1022.619198752336	462.715821061579	564.949895569993	1042.343230068316	757.769018300837	328.091429004016	968.423071968811	637.913444545489	266.516029127991	1057.939591788071	567.237565395388	335.318627750759	1065.308273964203	495.993778458235	342.243289204755	1036.136790311404	423.326056664877	332.301323363801	948.505287764024	309.792312219661	275.365599397523	997.508699674392	197.844483617495	348.382611011163	937.461951911922	403.167681268951	568.036772214659	809.271043853053	378.534933928975	621.803596389674	786.487675966803	271.751139124231	573.113371187318	577.940058659144	217.526815902804	533.468887122977	746.902911549131	168.034659017754	591.975774207788	634.008744355572	169.824407754458	617.369433657196	809.037841673834	60.167855627213	634.736489370412	864.205969848838	41.245274497191	376.352079060677	947.552954308440	36.869752862513	305.873614712377	1027.927763260178	97.155198417139	340.951013442026	1157.964295362280	41.008329065616	329.700879262671	896.573996751574	1064.544435699674	146.530832153293	955.093317720360	808.373875690587	157.783520103820	1080.674568727015	1106.689421443278	686.067134508075	1303.169512466937	1072.552064269238	570.311689531968	
90	43.950785714286	777.533966722882	1033.293928896378	443.126419120576	1018.265565956130	1406.241828763989	225.346384847417	1111.532922909711	1337.150592343109	392.426654426277	1048.003469789716	1445.651316153052	555.381037834154	1031.008035651479	1482.990694994802	372.274920950319	987.083582856892	940.974948946136	568.000282898731	985.833725434048	948.225466062449	294.971325213574	1033.727982796080	746.644499407059	548.054508432513	956.601912716547	637.535257362390	615.060560205658	1041.377030146105	578.556205692010	543.107856531685	1031.753213715313	466.021746726854	564.728024187509	1039.218139222199	757.221909452449	325.919409248555	963.116531035833	638.273549597469	265.462235550155	1051.763513083272	566.567361864321	334.209543698682	1058.111307134980	495.630516810872	341.423458071281	1028.839577192610	423.393274656980	331.602405124776	940.907664386734	309.962481433203	274.963994816297	989.763725940985	198.047802052468	348.227431093538	945.144342487577	406.920934485401	568.250107298540	815.830821475703	385.888170199640	621.102751412090	790.749116712525	279.393580499788	573.287752588709	581.518439730909	230.689198693052	532.214458625447	748.339196186548	176.828788976550	592.799100502412	635.312938696607	182.081301860758	617.121786682200	806.872607719306	66.942988956007	637.242195304720	856.241610100078	41.454363937697	376.450760891108	939.550080070903	37.004495783979	305.985568057181	1020.045771869339	97.186383780568	340.926186845065	1149.955003330824	40.883036144255	329.612768234967	901.355736374535	1065.100546844082	142.508342171494	969.933576147314	811.368032755202	152.542098549160	1072.557565209928	1107.750621788638	686.788107866901	1294.825387291617	1052.664507564820	574.882490372847	
91	43.962142857143	776.374086610924	1034.508972834668	441.655152390277	1018.058693754428	1407.717460138349	224.485639442172	1110.543840502864	1338.466679870617	391.964514101706	1046.303244318404	1446.900287170173	554.679587738827	1030.017995181492	1484.308322705866	371.480189094205	985.943047000872	942.442496468499	566.374896404609	984.831269113490	949.510961391558	293.495720736812	1036.131590967032	750.643005618735	545.936089573533	962.845006182866	640.521684115058	614.628989659660	1048.354345366283	583.012113449595	542.054346501836	1040.860454287683	469.439559884059	564.399123818562	1036.360312469737	756.710672215323	324.228789467966	958.276440285736	638.494812135995	264.684470499506	1046.028642044729	565.829203972342	333.460026474981	1051.383515878094	495.155836923832	341.034035250047	1021.985464655753	423.309313228225	331.259550366640	933.740691482675	310.089601873507	274.729957631630	982.120493422583	198.125057105064	348.270065027740	952.940241989726	410.670756269047	568.434591578415	822.803162106033	392.861302771053	620.694998846031	795.496327098606	286.759578397115	573.575112546945	585.684744125403	243.182825184881	531.653016285202	750.532608855781	185.235701666812	593.579537896272	637.567365994283	193.592245089702	617.192333827351	805.772506645140	73.671683971577	639.081579016922	848.255646490272	41.633630021889	376.567799420056	931.523279958182	37.133082736996	306.104230596064	1012.122067247379	97.206301343080	340.967363776019	1141.927250656462	40.758138910014	329.552416789631	906.256782276911	1065.585357872159	138.475045789872	985.050854034528	814.823727042772	147.499624868567	1064.702159013524	1108.565472769033	687.743687527145	1284.916062431636	1032.677174374337	580.277867994803	
92	43.973500000000	775.151474310503	1035.396040223290	440.223779929100	1017.662176854624	1409.015434564042	223.788783708340	1109.435860833164	1339.500721519614	391.583170040306	1044.506081427257	1447.727109156792	554.172855897229	1028.904129689168	1485.354869515380	370.908777302916	984.753590799433	943.670141401785	564.801355593308	983.866272482969	950.458437589246	292.008597014267	1038.297059024420	754.460224206486	543.851683725112	969.036374855223	643.494722232458	614.280723431632	1055.133944460077	587.488560392976	540.974209219289	1049.931726937379	472.938328776672	563.998258755219	1033.773536266979	756.182111544385	323.021110773838	953.937634562863	638.568340056467	264.129528181793	1040.731344619228	565.003461484898	333.057853665121	1045.117084439085	494.539558030244	341.020556919586	1015.562271013813	423.047434745279	331.217083167913	926.987433785987	310.140871379453	274.626562931767	974.578576073124	198.057068550827	348.473768479901	960.857551665532	414.363802453378	568.585436966555	830.176283500659	399.336636743222	620.581741500597	800.771885627566	293.710550285711	573.962829006094	590.459804243882	254.796986447792	531.743568468893	753.563279022600	193.063305922481	594.320417847255	640.800254737646	204.145095916269	617.564479173237	805.863050992471	80.091406439037	640.293997170437	840.251639008838	41.756270668564	376.688554644895	923.479747509826	37.234033606422	306.216685115068	1004.155318170158	97.207114880495	341.061851747200	1133.888552172409	40.641651150208	329.520270453083	911.215684859565	1065.995522993058	134.464474076192	1000.390264542401	818.783375223269	142.696160812249	1057.049836926152	1109.066759676860	688.862035913986	1273.358425601416	1012.785794609729	586.496016859796	
